# xmcd
#
# Track frame offsets:
#	150
#	21916
#	39848
#	56923
#	72771
#	92099
#	112825
#	135701
#	154729
#	170616
#	191674
#	215369
#	235699
#	256838
#
# Disc length: 3664 seconds
#
# Revision: 0
# Processed by: cddbd v1.5.2PL0 Copyright (c) Steve Scherf et al.
# Submitted via: EZCDAudioConverter 4.0.9.1
#
DISCID=b80e4e0e
DTITLE=Sheree Brown - Messages From The Heart
DYEAR=2013
DGENRE=R&B
TTITLE0=Time For The Party
TTITLE1=Just A Simple Love
TTITLE2=In My Heart
TTITLE3=On The Other Side Of Through
TTITLE4=It's Just Like Love
TTITLE5=Messages From The Heart
TTITLE6=Bein' In Love With You
TTITLE7=You Can Shine
TTITLE8=We Can Change The World *Jamal's  Joint)
TTITLE9=Love Is Forever
TTITLE10=Gettin' Started
TTITLE11=Where Love Goes
TTITLE12=I Think I'm Gonna Pray
TTITLE13=Inside My Love (Bonus Track)
EXTD=
EXTT0=
EXTT1=
EXTT2=
EXTT3=
EXTT4=
EXTT5=
EXTT6=
EXTT7=
EXTT8=
EXTT9=
EXTT10=
EXTT11=
EXTT12=
EXTT13=
PLAYORDER=
